<?xml version="1.0" encoding="UTF-8" standalone="no"?>
<!-- Created with Inkscape (http://www.inkscape.org/) -->

<svg
   xmlns:dc="http://purl.org/dc/elements/1.1/"
   xmlns:cc="http://creativecommons.org/ns#"
   xmlns:rdf="http://www.w3.org/1999/02/22-rdf-syntax-ns#"
   xmlns:svg="http://www.w3.org/2000/svg"
   xmlns="http://www.w3.org/2000/svg"
   xmlns:sodipodi="http://sodipodi.sourceforge.net/DTD/sodipodi-0.dtd"
   xmlns:inkscape="http://www.inkscape.org/namespaces/inkscape"
   width="744.09448819"
   height="1052.3622047"
   id="svg3045"
   version="1.1"
   inkscape:version="0.48.3.1 r9886"
   sodipodi:docname="New document 5">
  <defs
     id="defs3047" />
  <sodipodi:namedview
     id="base"
     pagecolor="#ffffff"
     bordercolor="#666666"
     borderopacity="1.0"
     inkscape:pageopacity="0.0"
     inkscape:pageshadow="2"
     inkscape:zoom="0.24748737"
     inkscape:cx="183.99367"
     inkscape:cy="508.51866"
     inkscape:document-units="px"
     inkscape:current-layer="layer1"
     showgrid="false"
     inkscape:window-width="918"
     inkscape:window-height="784"
     inkscape:window-x="1"
     inkscape:window-y="44"
     inkscape:window-maximized="0" />
  <metadata
     id="metadata3050">
    <rdf:RDF>
      <cc:Work
         rdf:about="">
        <dc:format>image/svg+xml</dc:format>
        <dc:type
           rdf:resource="http://purl.org/dc/dcmitype/StillImage" />
        <dc:title></dc:title>
      </cc:Work>
    </rdf:RDF>
  </metadata>
  <g
     inkscape:label="Layer 1"
     inkscape:groupmode="layer"
     id="layer1">
    <path
       d="m 254.37962,5.7530229 c -3.47617,0.5063534 -12.00859,1.2152481 -18.96094,1.6203308 -6.95234,0.303812 -13.378,1.0127068 -14.43138,1.5190602 -0.94805,0.5063534 -5.16159,1.2152481 -9.48047,1.5190601 -4.21354,0.405083 -9.05912,1.215248 -10.84987,1.924143 -1.68542,0.708895 -4.10821,1.620331 -5.26694,2.126684 -1.47474,0.506353 0.31602,1.012707 5.79363,1.51906 11.90326,1.215248 42.3461,8.000384 56.35613,12.557564 2.31745,0.708895 8.95378,2.835579 14.7474,4.557181 10.53386,3.240661 17.38086,5.772428 22.96381,8.608007 1.68541,0.810166 4.90037,0.390403 6.10963,1.51906 1.05932,0.98871 2.38909,0.635575 3.05482,0.911436 0.87065,0.360726 10.53386,6.177512 12.42995,6.177512 0.5267,0 3.2655,1.215248 6.10964,2.633037 6.21498,3.139391 20.85704,10.734692 28.86277,14.88679 6.847,3.544473 33.07631,20.051594 33.49766,21.165571 0.21068,0.506353 0.84271,0.810165 1.3694,0.810165 1.26406,0 20.96238,14.481706 30.96954,22.684636 11.90326,9.82325 25.38659,22.58335 37.28985,35.14092 16.53816,17.41855 23.38516,25.62148 32.97097,39.79937 1.47474,2.32923 3.16016,4.65845 3.68685,5.16481 0.5267,0.60762 2.31745,3.34193 4.00287,6.07624 1.68542,2.83558 3.47617,5.1648 3.89753,5.36734 0.42135,0.20255 0.8427,0.7089 0.8427,1.21525 0,0.50636 2.21211,4.65845 5.05626,9.3169 6.42565,10.93724 16.01146,29.97613 16.01146,31.799 0,0.50635 2.10677,5.26607 5.89896,13.26646 0.84271,1.7216 1.47474,3.74701 1.47474,4.55718 0,0.81016 0.52669,1.92414 1.15872,2.53176 0.52669,0.50636 1.68542,3.44321 2.52813,6.48133 3.37083,12.65883 4.00286,14.68425 5.05625,16.60839 0.63203,1.11398 1.47474,3.64575 1.89609,5.56989 0.42136,1.92414 1.26406,4.86099 1.79076,6.58259 2.42278,6.68387 7.16302,27.95071 8.11107,35.44474 0.31601,3.34193 1.47474,10.83596 2.42278,16.70966 2.52813,15.39314 2.52813,80.20638 -0.10533,97.7262 -0.94805,6.68387 -2.21211,15.59569 -2.84415,19.74779 -2.84414,19.84905 -6.74166,36.76125 -14.64206,63.59798 -3.89752,13.26646 -6.847,21.97574 -8.2164,24.5075 -0.73737,1.41779 -1.36941,2.93685 -1.36941,3.54448 0,1.21525 -6.42565,16.30458 -8.2164,19.44397 -0.73737,1.21525 -1.26407,2.73431 -1.26407,3.34193 0,2.53177 -20.54102,40.00192 -23.80651,43.64766 -0.84271,0.81017 -1.47474,1.82287 -1.47474,2.22796 0,1.0127 -6.10964,9.41817 -7.79506,10.73469 -3.37083,2.73431 -4.00286,0.81016 -4.31888,-13.57027 -0.31601,-13.57027 -2.31745,-28.35579 -4.63489,-34.22949 -0.63204,-1.51906 -1.36941,-5.77243 -1.79076,-9.51944 -0.42135,-3.84829 -1.05339,-7.39276 -1.47474,-7.89912 -0.42135,-0.60762 -1.05339,-2.63304 -1.47474,-4.55718 -0.31602,-1.92414 -2.52813,-7.08895 -4.74024,-11.64613 -4.84557,-9.51944 -13.16732,-18.22872 -21.91042,-22.98844 -3.16015,-1.7216 -6.0043,-3.74701 -6.32031,-4.45591 -0.31602,-0.81016 0.73737,-3.4432 2.31745,-6.07624 4.1082,-6.68386 3.16015,-7.89911 -5.58295,-6.98768 -5.68828,0.50636 -7.47903,0.40509 -8.53242,-0.81016 -1.05339,-1.31652 -0.84271,-1.92414 1.05339,-3.64575 1.3694,-1.21524 3.16015,-2.12668 4.21354,-2.12668 0.94805,0 2.84414,-0.81017 4.21354,-1.92414 1.3694,-1.01271 3.47617,-2.12669 4.74024,-2.53177 7.79505,-2.32923 10.95521,-27.84944 6.32031,-50.73661 -2.63346,-12.86138 -6.21498,-19.74778 -12.0086,-22.27955 -4.84557,-2.12668 -6.42565,-4.75972 -4.31888,-7.19022 1.05339,-1.21524 0.84271,-1.7216 -0.73737,-2.93685 -2.52812,-1.92414 -3.47617,-1.82287 -4.21354,0 -0.52669,1.21525 -1.3694,0.7089 -4.00287,-1.92414 -6.42565,-6.78513 -23.06914,-8.20292 -48.03438,-4.25337 -9.79649,1.51906 -12.85131,2.4305 -23.17449,6.98768 -16.43281,7.39276 -32.76029,21.46938 -39.0806,33.72314 -3.16016,6.07624 -3.16016,6.27878 -1.8961,13.16518 1.47474,8.20293 2.31745,9.41818 4.84558,7.29149 1.05338,-0.91143 2.84414,-1.82287 4.00286,-2.02541 1.8961,-0.30381 2.21211,0.40508 2.7388,6.38005 0.42136,3.74702 1.47474,8.10165 2.42279,9.82326 2.63347,4.86099 2.10677,9.3169 -1.3694,12.86137 -6.21498,6.38005 -6.10964,8.20293 0.21068,11.94994 2.21211,1.41779 2.84414,2.53177 2.84414,5.36735 0,2.83558 0.94805,4.55718 4.84557,8.50673 4.31888,4.45591 4.84558,5.36735 4.21355,8.3042 -1.26407,7.19022 5.58294,9.51944 15.16875,5.1648 7.90039,-3.54447 9.16445,-3.74701 10.84987,-1.11397 1.26406,1.82287 1.3694,3.64574 0.73737,8.30419 -0.73737,4.861 -1.58008,6.48133 -4.42422,9.11436 -1.89609,1.72161 -6.0043,5.8737 -9.05912,9.31691 -4.84557,5.36734 -6.53099,6.58259 -15.80078,10.32961 -5.68828,2.32922 -14.01003,4.96226 -18.53959,5.87369 -5.4776,1.21525 -9.37513,2.73431 -11.90326,4.65846 -4.84557,3.64574 -6.53099,3.54447 -11.27122,-0.7089 -9.05912,-8.20292 -19.80365,-10.83596 -37.39519,-9.11436 -6.63633,0.60762 -7.68972,1.01271 -11.69258,4.75972 l -4.42422,4.05083 -20.11967,-0.7089 c -23.17449,-0.81016 -33.81368,-2.43049 -40.34467,-6.07624 -4.00287,-2.22795 -4.6349,-3.03812 -5.26693,-7.08894 -0.42136,-2.83558 -1.15873,-4.55718 -2.10677,-4.55718 -0.84271,0 -1.47474,-1.01271 -1.47474,-2.63304 0,-2.63304 -6.63633,-10.53215 -8.95378,-10.53215 -2.21211,-0.10127 -11.16589,-6.17751 -12.0086,-8.40547 -0.52669,-1.21525 -1.89609,-3.13939 -3.16015,-4.1521 -1.26407,-1.11397 -2.73881,-3.64574 -3.2655,-5.77242 l -1.05339,-3.84829 -4.00286,1.31652 c -2.7388,0.91143 -4.95091,1.0127 -7.3737,0.40508 -5.16159,-1.41779 -6.21498,-0.60762 -7.58438,5.67116 -0.94804,4.45591 -2.10677,6.38005 -5.89896,9.92453 -4.42422,4.15209 -4.63489,4.55718 -4.63489,10.12706 0,4.65845 -0.84271,7.5953 -4.42422,14.98806 l -4.424223,9.31691 -5.582944,-0.7089 c -4.634897,-0.50635 -6.320314,-0.20254 -10.849872,1.92414 -2.844141,1.41779 -6.741668,4.1521 -8.637763,6.27879 -4.318881,4.55718 -8.111069,12.86137 -8.216408,17.82363 l 0,3.74702 5.793621,0.60762 c 4.318882,0.60763 6.109637,1.31652 7.3737,3.13939 1.053386,1.51906 2.21211,2.12669 3.265496,1.72161 0.948047,-0.30382 2.001432,-0.20255 2.422787,0.30381 0.842708,1.21525 10.007163,5.46861 11.797919,5.46861 0.842708,0 3.160157,1.62034 5.161587,3.54448 3.37084,3.34193 6.32032,4.55718 6.32032,2.63304 0,-1.21525 5.05625,-0.10127 6.42565,1.51906 0.63203,0.81016 2.21211,1.41779 3.47617,1.41779 1.15873,0 2.94948,0.40508 3.79219,1.0127 1.26406,0.81017 1.26406,1.11398 -0.31602,2.83558 -0.94804,1.01271 -1.79075,2.63304 -1.79075,3.54447 0,5.06354 -9.79649,2.93685 -14.64206,-3.24066 -1.47474,-1.82287 -3.2655,-3.03812 -4.213545,-2.73431 -0.948047,0.20255 -3.476172,0.7089 -5.688282,1.11398 -3.476173,0.50636 -4.002866,0.30381 -4.950913,-1.92414 -1.053385,-2.93685 -4.424219,-4.86099 -7.373699,-4.45591 -1.053386,0.20254 -2.738803,-0.60762 -3.581511,-1.7216 -0.842709,-1.11398 -2.633465,-2.02542 -4.002866,-2.02542 -1.47474,0 -2.844141,-0.81016 -3.476173,-2.32922 -0.526692,-1.21525 -1.685417,-2.22796 -2.528125,-2.22796 -0.842709,0 -2.422787,-0.70889 -3.476173,-1.7216 -1.053385,-0.91143 -2.001433,-1.41779 -2.21211,-1.21525 -0.105338,0.20255 -1.369401,2.4305 -2.738802,4.96227 -1.264063,2.53176 -3.054819,5.67116 -3.897527,7.08895 -2.422787,4.15209 -5.688283,11.94993 -5.688283,13.57027 0,0.81016 -0.421354,1.7216 -0.948047,2.02541 -0.526693,0.30381 -1.264063,2.22795 -1.685417,4.25337 -0.316016,2.12668 -2.001433,6.58259 -3.68685,9.92452 -1.685417,3.44321 -3.370834,7.49403 -3.792188,9.21564 -0.421354,1.62033 -1.369401,3.94955 -2.106771,5.06353 -1.896095,2.53177 -1.896095,6.07624 0,7.79784 10.112502,9.11436 30.864199,19.74778 43.29415,22.07701 12.745966,2.4305 11.903258,2.53177 13.272659,-0.60763 1.790756,-4.55718 3.476173,-7.89911 10.849873,-22.88717 3.79219,-7.5953 6.95234,-14.17789 6.95234,-14.68425 0.10534,-0.40508 0.94805,-2.63303 2.10678,-4.86099 1.15872,-2.22795 2.10677,-4.75972 2.10677,-5.56989 0,-0.81016 0.73737,-2.43049 1.58008,-3.4432 0.8427,-1.11398 1.58007,-2.73431 1.58007,-3.74701 0,-0.91144 0.63204,-2.22796 1.47474,-2.83558 0.84271,-0.7089 1.8961,-2.73431 2.31745,-4.45591 0.31602,-1.7216 1.3694,-4.1521 2.10677,-5.26608 2.00144,-3.03812 7.9004,-16.60839 8.95378,-20.86176 0.52669,-2.12668 0.52669,-5.06353 -0.10534,-7.08894 -0.94804,-3.03812 -0.73737,-3.74702 1.8961,-6.48133 1.68541,-1.62033 3.79219,-4.35464 4.84557,-5.97497 1.8961,-2.83558 2.10677,-2.83558 9.48047,-2.43049 7.90039,0.50635 8.53243,0.70889 29.60014,11.44358 5.26693,2.63304 10.63919,5.16481 12.11393,5.56989 1.47474,0.50635 5.26693,1.82287 8.42709,3.03812 3.16016,1.21525 8.11107,2.83558 10.95521,3.4432 7.68972,1.82288 7.79506,3.03812 3.37084,22.88718 -0.84271,3.64574 -2.21211,10.12706 -3.16016,14.4817 -0.94805,4.35464 -2.10677,8.81055 -2.7388,9.82326 -0.52669,1.01271 -1.05339,2.93685 -1.05339,4.25337 0,1.31652 -0.63203,3.54447 -1.3694,4.96226 -0.84271,1.41779 -1.79075,4.55718 -2.21211,7.08895 -0.42135,2.43049 -1.68542,7.08894 -2.94948,10.22834 l -2.10677,5.77242 -6.21498,0.7089 c -3.37083,0.40508 -6.84701,1.21525 -7.58438,1.82287 -2.52812,2.02541 -6.21497,19.54524 -5.79362,27.84944 l 0.31602,7.39276 6.84701,2.02541 c 14.43138,4.25337 14.32604,4.1521 9.58581,19.24143 -1.8961,5.8737 -15.48477,24.10242 -18.0129,24.10242 -0.84271,0 -10.21784,5.77243 -14.22071,8.70928 -2.84414,2.02541 -12.32461,6.27878 -19.27695,8.60801 -3.16016,1.0127 -7.68972,2.7343 -10.11251,3.84828 -13.37799,5.97497 -13.06198,5.97497 -19.06628,3.13939 -4.95091,-2.32922 -6.95234,-2.53176 -8.7431,-0.81016 -1.89609,1.82287 -1.58007,5.26607 0.84271,8.20295 4.21354,5.16478 0.31602,6.98765 -10.533854,4.65842 -2.633465,-0.50635 -9.480471,-1.82287 -15.274092,-2.93682 -5.793621,-1.01271 -13.167321,-2.63304 -16.327478,-3.54448 -3.160157,-0.91143 -8.216408,-2.22798 -11.165888,-3.03814 -2.94948,-0.7089 -6.320314,-1.7216 -7.584377,-2.4305 -1.158724,-0.60762 -3.054818,-1.11397 -4.108204,-1.11397 -1.053385,0 -3.160157,-0.7089 -4.740235,-1.41779 -1.685417,-0.81017 -6.63633,-2.73431 -11.060546,-4.1521 -4.529558,-1.51906 -11.165888,-4.05083 -14.747399,-5.67116 -3.5815115,-1.62033 -7.2683612,-2.93685 -8.1110698,-2.93685 -0.8427085,0 -1.8960941,-0.40508 -2.2121098,-1.01271 -0.3160157,-0.50635 -1.47473995,-1.0127 -2.31744847,-1.0127 -1.36940133,0 -1.26406283,0.50635 0.73736995,2.22795 6.42565252,5.77243 41.39805312,28.45706 54.24935812,35.2422 2.317448,1.21525 5.688282,3.03812 7.373699,4.05082 1.790756,1.11398 4.634897,2.63304 6.320314,3.54448 1.790756,0.81016 4.634897,2.43049 6.320314,3.4432 4.108204,2.53177 19.80365,10.22834 20.751697,10.22834 0.421355,0 3.054819,1.31652 5.793619,2.83558 2.73881,1.62033 7.16302,3.64574 9.79649,4.65845 5.05625,1.92414 15.27409,6.27878 17.90756,7.5953 0.94804,0.50635 3.16015,1.21525 5.05625,1.51906 1.79075,0.40508 3.58151,1.21525 3.89752,1.7216 0.42136,0.50636 1.3694,0.91144 2.21211,0.91144 0.84271,0 4.6349,1.41779 8.42709,3.03812 l 6.74167,3.13939 -1.68542,3.24066 c -1.79076,3.13939 -4.84557,7.08895 -11.69258,14.68425 -1.8961,2.02541 -3.47617,4.35464 -3.47617,5.1648 0,1.72161 5.05625,6.27879 10.00716,8.70928 2.00143,1.11398 4.31888,3.34193 5.37227,5.06354 1.58008,2.83557 1.58008,3.4432 0,6.98767 -0.94805,2.12669 -1.68542,4.86099 -1.68542,5.97497 0,2.32923 -0.73737,3.84829 -12.74597,27.54563 -4.74023,9.41817 -10.32318,19.3427 -12.21927,21.97573 -1.89609,2.63304 -3.47617,5.16481 -3.47617,5.67116 0,1.11398 -32.654958,31.49519 -38.869934,36.25489 -1.369401,1.114 -4.002865,3.1394 -5.793621,4.5572 -9.269794,7.2915 -20.014327,9.9245 -26.861334,6.4813 -3.265495,-1.519 -3.581511,-1.519 -5.477605,0.1013 -2.528126,2.228 -2.528126,6.0762 0,10.0258 1.369401,2.3292 3.476172,3.6457 8.111069,5.0635 3.370834,1.0127 7.163023,2.7343 8.321747,3.6458 5.477605,4.3546 8.953778,5.266 19.487634,4.7597 7.584377,-0.4051 10.849873,-0.9114 13.167321,-2.4305 10.955213,-6.9877 39.291283,-20.6592 44.031523,-21.1656 21.06771,-2.4305 24.96524,-2.9368 24.96524,-3.747 0,-0.4051 0.73737,-0.8102 1.58008,-0.8102 1.68541,0 4.00286,-6.7851 4.00286,-12.1524 0,-4.861 -3.16016,-17.62114 -4.52956,-18.02623 -1.26406,-0.40508 -1.47474,-6.27878 -0.10534,-6.27878 0.5267,0 1.58008,-2.53176 2.21211,-5.77243 0.73737,-3.13939 2.63347,-8.50673 4.31889,-12.05121 1.68541,-3.4432 3.05481,-6.58259 3.05481,-6.8864 0,-0.50636 3.2655,-5.46862 7.58438,-11.54486 3.2655,-4.55718 8.00573,-10.0258 12.32461,-14.17789 3.37084,-3.13939 4.00287,-3.34194 7.9004,-2.83558 2.31745,0.40508 5.05625,1.31652 6.0043,2.12668 2.94948,2.73431 6.95234,1.82287 10.1125,-2.12668 1.58008,-2.02542 5.58294,-6.98768 8.84844,-10.93724 9.05912,-11.24104 10.74453,-14.27916 10.00716,-18.32999 -0.42135,-1.92414 -1.3694,-3.54447 -2.10677,-3.54447 -0.84271,0 -1.68542,-1.21525 -2.00143,-2.83558 -0.42136,-2.02541 0.10534,-3.64575 2.31745,-6.27878 3.58151,-4.25337 5.89896,-4.65845 27.49336,-4.96227 25.07058,-0.30381 74.36903,-5.26607 86.79898,-8.81055 2.7388,-0.81016 6.32031,-1.41778 7.79505,-1.41778 1.47474,0 5.26693,-0.7089 8.53243,-1.62034 3.26549,-0.81016 8.53242,-2.22795 11.69258,-3.03812 3.16016,-0.91143 7.26836,-2.02541 8.95378,-2.63303 1.79075,-0.50636 5.79362,-1.62033 8.95377,-2.32923 5.79363,-1.21525 15.59011,-4.05083 19.48764,-5.56989 1.15872,-0.40508 4.52956,-1.62033 7.3737,-2.53176 2.94948,-1.01271 9.05912,-3.24066 13.69401,-5.06354 4.6349,-1.82287 11.27123,-4.45591 14.7474,-5.77243 5.26693,-1.92414 20.22501,-8.91181 27.49337,-12.86137 1.15872,-0.60763 4.63489,-2.22796 7.79505,-3.64575 6.95235,-3.24066 11.90326,-5.87369 12.64063,-6.68386 0.31601,-0.40508 2.94948,-1.82287 5.79362,-3.34193 6.21497,-3.13939 6.84701,-3.54445 18.32891,-10.73469 21.38373,-13.469 27.70404,-17.92491 45.82228,-31.69773 21.91042,-16.70966 58.04155,-51.95185 68.04871,-66.43356 0.84271,-1.31652 2.31745,-3.13939 3.16016,-4.1521 5.05625,-5.97497 25.49193,-36.05236 30.12683,-44.35655 2.00143,-3.44321 5.37226,-9.31691 7.47903,-13.16519 6.63633,-11.7474 17.27553,-32.91297 21.80509,-43.74893 1.58008,-3.64575 3.26549,-7.39276 3.79219,-8.3042 0.52669,-1.01271 1.47473,-3.4432 2.00143,-5.56989 0.94804,-3.74701 3.47617,-10.93723 5.26693,-14.98806 0.8427,-2.12668 4.21354,-12.55756 6.847,-21.26684 2.73881,-9.11436 7.68972,-31.29264 8.95378,-40.00192 0.52669,-3.64574 1.47474,-9.82325 2.10677,-13.67154 4.42422,-28.86214 5.47761,-60.35732 2.84414,-85.57372 -0.94804,-8.60801 -1.89609,-18.02618 -2.10677,-20.76049 -0.31601,-5.1648 -2.00143,-14.58298 -3.89752,-22.7859 -0.63204,-2.53177 -1.68542,-8.20293 -2.42279,-12.65884 -1.3694,-7.69657 -3.16016,-15.1906 -6.53099,-26.2291 -0.84271,-2.63304 -1.47474,-5.77243 -1.47474,-6.78514 0,-1.0127 -0.42136,-2.02541 -0.94805,-2.32922 -0.42135,-0.30381 -1.15872,-2.32923 -1.58008,-4.45591 -0.31601,-2.22796 -1.3694,-5.26608 -2.21211,-6.88641 -0.84271,-1.62033 -1.58008,-3.84828 -1.58008,-4.96226 -0.10534,-1.11398 -0.73737,-3.13939 -1.58008,-4.55718 -0.8427,-1.41779 -1.47474,-3.34193 -1.58007,-4.25337 0,-2.02541 -9.90183,-26.63419 -14.64206,-36.45745 -1.79076,-3.64574 -3.2655,-7.08894 -3.2655,-7.49403 0,-0.91143 -6.63633,-14.4817 -9.26979,-19.14015 -0.94805,-1.72161 -3.68685,-6.5826 -6.0043,-10.83597 -3.79219,-6.98767 -9.37513,-15.79822 -20.43568,-32.20407 -2.10677,-3.03812 -6.42566,-9.01309 -9.69115,-13.16519 -3.16016,-4.1521 -6.32032,-8.30419 -6.84701,-9.3169 -0.52669,-0.91144 -2.84414,-3.64575 -5.16159,-6.07624 -2.42278,-2.32923 -6.95234,-7.5953 -10.21784,-11.44359 -8.11107,-9.82325 -28.23073,-29.26722 -44.03152,-42.53368 -15.06341,-12.65883 -12.95664,-11.0385 -23.17448,-18.431263 -4.31888,-3.139391 -8.11107,-5.97497 -8.42709,-6.278782 -1.26406,-1.51906 -29.91615,-19.646511 -40.55535,-25.621481 -13.58867,-7.797842 -25.91328,-13.975353 -27.70404,-13.975353 -0.73737,0 -1.26406,-0.405083 -1.26406,-0.810166 0,-0.506353 -1.8961,-1.417789 -4.21354,-2.126684 -2.42279,-0.708895 -4.21355,-1.822872 -4.21355,-2.633038 0,-0.911436 -1.05338,-1.51906 -2.42278,-1.51906 -1.36941,0 -4.52956,-1.012707 -7.16303,-2.126684 -2.52812,-1.215248 -8.84844,-3.645744 -14.11536,-5.468617 -18.53959,-6.380052 -25.28126,-8.911819 -26.33465,-9.823255 -0.52669,-0.405083 -1.89609,-0.810166 -3.16015,-0.810166 -1.15873,-0.10127 -4.00287,-0.810165 -6.32032,-1.62033 -4.63489,-1.721602 -13.27266,-3.949557 -23.17448,-5.97497 -3.47617,-0.708895 -8.21641,-1.822872 -10.53386,-2.329226 C 347.1829,8.8924139 318.10946,5.7530229 283.34773,5.2466695 270.91778,5.0441282 257.8558,5.3479402 254.37962,5.7530229 z M 130.60681,594.84455 c 3.68685,5.67116 3.68685,8.30419 0,10.12707 -2.21211,1.11397 -2.84414,1.0127 -3.68685,-0.30382 -0.5267,-0.91143 -1.8961,-2.53176 -2.84414,-3.64574 -2.00144,-2.22795 -2.31745,-4.75972 -1.26407,-8.70928 1.05339,-3.74701 4.31888,-2.73431 7.79506,2.53177 z m -23.38517,32.71043 c 0.73737,1.21525 0.84271,2.12668 0.21068,2.53176 -0.63203,0.30382 -1.05338,-0.10127 -1.05338,-0.91143 0,-1.11398 -0.94805,-1.62033 -3.05482,-1.62033 -3.2655,0 -4.950915,-1.31652 -3.79219,-2.93685 0.84271,-1.41779 6.10964,0.60762 7.68971,2.93685 z m 252.18053,23.29225 c 1.26407,4.55718 1.8961,10.0258 1.8961,17.72237 0,15.59569 -2.21211,21.87447 -7.05769,20.35541 -2.52812,-0.81017 -10.95521,-12.76011 -16.85417,-23.89988 -1.58007,-3.03812 -3.68685,-6.68387 -4.74023,-8.00039 -1.05339,-1.31651 -1.8961,-3.64574 -1.8961,-5.26607 0,-2.4305 0.63204,-3.03812 4.00287,-3.84829 2.10677,-0.60762 4.42422,-1.11397 5.05625,-1.11397 0.73737,0 2.63346,-0.7089 4.21354,-1.51906 1.8961,-0.91144 5.16159,-1.41779 8.21641,-1.31652 l 5.16159,0.30381 z M 84.257838,650.03707 c 0,0.40508 -1.158724,0.81016 -2.633464,0.81016 -2.94948,0 -4.318882,-2.02541 -3.265496,-4.65845 0.632031,-1.51906 1.053386,-1.41779 3.265496,0.60763 1.47474,1.31651 2.633464,2.7343 2.633464,3.24066 z m 19.276962,6.58259 c -0.73737,0.20254 -2.21211,0.20254 -3.16016,0 -1.053387,-0.30381 -0.421356,-0.50635 1.26406,-0.50635 1.79076,0 2.52813,0.20254 1.8961,0.50635 z m -35.499101,23.79861 c -1.896094,1.01271 -4.108204,0.20254 -3.265496,-1.21525 0.316016,-0.40508 1.580079,-0.60762 2.738803,-0.30381 2.001433,0.50635 2.001433,0.7089 0.526693,1.51906 z m 203.619451,6.17751 c 0.63203,0.81017 1.58008,3.84829 2.21211,6.88641 1.47474,7.79784 4.21354,18.32999 5.26693,20.25413 0.52669,0.91144 1.26406,3.44321 1.68541,5.56989 0.31602,2.22796 1.05339,4.35464 1.47474,4.96226 0.42136,0.50636 1.15873,2.73431 1.47474,4.96227 0.42136,2.12668 1.36941,5.26607 2.10678,7.08894 0.8427,1.72161 2.31744,5.77243 3.37083,9.11437 1.05338,3.24066 2.7388,6.98767 3.79219,8.20292 0.94804,1.21525 2.10677,4.1521 2.52812,6.38005 0.63203,3.94956 0.5267,4.25337 -2.31745,5.36735 -1.68541,0.70889 -4.52955,1.82287 -6.42565,2.53177 -1.79075,0.81016 -3.79219,1.41778 -4.42422,1.41778 -1.47474,0 -13.378,3.84829 -17.69688,5.67116 -1.79075,0.81017 -3.79218,1.41779 -4.52955,1.41779 -0.73737,0 -4.42422,2.02542 -8.32175,4.45591 -3.79219,2.4305 -8.84844,4.96226 -11.16589,5.56989 -6.42565,1.7216 -7.05768,0.50635 -6.95234,-13.57027 0,-14.48171 0.63203,-15.59569 7.68971,-13.77281 6.63633,1.82287 17.4862,3.4432 19.06628,2.83558 0.84271,-0.30382 2.21211,-4.05083 3.2655,-8.50674 0.94804,-4.35464 2.42278,-10.63342 3.26549,-13.97535 2.7388,-11.64613 2.7388,-12.25376 -0.10534,-15.29188 l -2.7388,-2.73431 0.73737,-15.79822 c 0.42135,-8.70928 1.15872,-16.81093 1.68542,-18.12745 1.05338,-2.53177 3.26549,-2.93685 5.05625,-0.91144 z"
       id="path10"
       inkscape:connector-curvature="0"
       sodipodi:nodetypes="ccccccccccssscccscccccsscscssccscccccccscscscccccccccccccsccccscccccccccccccscccccccccccccccccsscccccccccsccccccccsccscscsccscccccsscsccccsscccccccccsscscccsscccccsccscsccccccccccsccccscccsccsccsscscccccscccccsccccsccsscssccccccccccssscsccscccccccsccccsccccccscccccccccccccccccccccccsccscsccscccccccccccsscsscccccccccccccccccsscccsccsscsccccssccsccscccccccccccccccccscscccccccccccc" />
  </g>
</svg>
