<?xml version="1.0" standalone="no"?>
<!DOCTYPE svg PUBLIC "-//W3C//DTD SVG 20010904//EN"
 "http://www.w3.org/TR/2001/REC-SVG-20010904/DTD/svg10.dtd">
<svg version="1.0" xmlns="http://www.w3.org/2000/svg"
 width="768.000000pt" height="1280.000000pt" viewBox="0 0 768.000000 1280.000000"
 preserveAspectRatio="xMidYMid meet">
<metadata>
Created by potrace 1.10, written by Peter Selinger 2001-2011
</metadata>
<g transform="translate(0.000000,1280.000000) scale(0.100000,-0.100000)"
fill="#000000" stroke="none">
<path d="M0 12550 l0 -250 3840 0 3840 0 0 250 0 250 -3840 0 -3840 0 0 -250z"/>
<path d="M2995 11680 c-33 -5 -114 -12 -180 -16 -66 -3 -127 -10 -137 -15 -9
-5 -49 -12 -90 -15 -40 -4 -86 -12 -103 -19 -16 -7 -39 -16 -50 -21 -14 -5 3
-10 55 -15 113 -12 402 -79 535 -124 22 -7 85 -28 140 -45 100 -32 165 -57
218 -85 16 -8 42 -15 58 -15 16 0 29 -4 29 -9 0 -9 100 -61 118 -61 5 0 31
-12 58 -26 59 -31 198 -106 274 -147 65 -35 314 -198 318 -209 2 -5 8 -8 13
-8 12 0 199 -143 294 -224 113 -97 241 -223 354 -347 157 -172 222 -253 313
-393 14 -23 30 -46 35 -51 5 -6 22 -33 38 -60 16 -28 33 -51 37 -53 4 -2 8 -7
8 -12 0 -5 21 -46 48 -92 61 -108 152 -296 152 -314 0 -5 20 -52 56 -131 8
-17 14 -37 14 -45 0 -8 5 -19 11 -25 5 -5 16 -34 24 -64 32 -125 38 -145 48
-164 6 -11 14 -36 18 -55 4 -19 12 -48 17 -65 23 -66 68 -276 77 -350 3 -33
14 -107 23 -165 24 -152 24 -792 -1 -965 -9 -66 -21 -154 -27 -195 -27 -196
-64 -363 -139 -628 -37 -131 -65 -217 -78 -242 -7 -14 -13 -29 -13 -35 0 -12
-61 -161 -78 -192 -7 -12 -12 -27 -12 -33 0 -25 -195 -395 -226 -431 -8 -8
-14 -18 -14 -22 0 -10 -58 -93 -74 -106 -32 -27 -38 -8 -41 134 -3 134 -22
280 -44 338 -6 15 -13 57 -17 94 -4 38 -10 73 -14 78 -4 6 -10 26 -14 45 -3
19 -24 70 -45 115 -46 94 -125 180 -208 227 -30 17 -57 37 -60 44 -3 8 7 34
22 60 39 66 30 78 -53 69 -54 -5 -71 -4 -81 8 -10 13 -8 19 10 36 13 12 30 21
40 21 9 0 27 8 40 19 13 10 33 21 45 25 74 23 104 275 60 501 -25 127 -59 195
-114 220 -46 21 -61 47 -41 71 10 12 8 17 -7 29 -24 19 -33 18 -40 0 -5 -12
-13 -7 -38 19 -61 67 -219 81 -456 42 -93 -15 -122 -24 -220 -69 -156 -73
-311 -212 -371 -333 -30 -60 -30 -62 -18 -130 14 -81 22 -93 46 -72 10 9 27
18 38 20 18 3 21 -4 26 -63 4 -37 14 -80 23 -97 25 -48 20 -92 -13 -127 -59
-63 -58 -81 2 -118 21 -14 27 -25 27 -53 0 -28 9 -45 46 -84 41 -44 46 -53 40
-82 -12 -71 53 -94 144 -51 75 35 87 37 103 11 12 -18 13 -36 7 -82 -7 -48
-15 -64 -42 -90 -18 -17 -57 -58 -86 -92 -46 -53 -62 -65 -150 -102 -54 -23
-133 -49 -176 -58 -52 -12 -89 -27 -113 -46 -46 -36 -62 -35 -107 7 -86 81
-188 107 -355 90 -63 -6 -73 -10 -111 -47 l-42 -40 -191 7 c-220 8 -321 24
-383 60 -38 22 -44 30 -50 70 -4 28 -11 45 -20 45 -8 0 -14 10 -14 26 0 26
-63 104 -85 104 -21 1 -106 61 -114 83 -5 12 -18 31 -30 41 -12 11 -26 36 -31
57 l-10 38 -38 -13 c-26 -9 -47 -10 -70 -4 -49 14 -59 6 -72 -56 -9 -44 -20
-63 -56 -98 -42 -41 -44 -45 -44 -100 0 -46 -8 -75 -42 -148 l-42 -92 -53 7
c-44 5 -60 2 -103 -19 -27 -14 -64 -41 -82 -62 -41 -45 -77 -127 -78 -176 l0
-37 55 -6 c41 -6 58 -13 70 -31 10 -15 21 -21 31 -17 9 3 19 2 23 -3 8 -12 95
-54 112 -54 8 0 30 -16 49 -35 32 -33 60 -45 60 -26 0 12 48 1 61 -15 6 -8 21
-14 33 -14 11 0 28 -4 36 -10 12 -8 12 -11 -3 -28 -9 -10 -17 -26 -17 -35 0
-50 -93 -29 -139 32 -14 18 -31 30 -40 27 -9 -2 -33 -7 -54 -11 -33 -5 -38 -3
-47 19 -10 29 -42 48 -70 44 -10 -2 -26 6 -34 17 -8 11 -25 20 -38 20 -14 0
-27 8 -33 23 -5 12 -16 22 -24 22 -8 0 -23 7 -33 17 -10 9 -19 14 -21 12 -1
-2 -13 -24 -26 -49 -12 -25 -29 -56 -37 -70 -23 -41 -54 -118 -54 -134 0 -8
-4 -17 -9 -20 -5 -3 -12 -22 -16 -42 -3 -21 -19 -65 -35 -98 -16 -34 -32 -74
-36 -91 -4 -16 -13 -39 -20 -50 -18 -25 -18 -60 0 -77 96 -90 293 -195 411
-218 121 -24 113 -25 126 6 17 45 33 78 103 226 36 75 66 140 66 145 1 4 9 26
20 48 11 22 20 47 20 55 0 8 7 24 15 34 8 11 15 27 15 37 0 9 6 22 14 28 8 7
18 27 22 44 3 17 13 41 20 52 19 30 75 164 85 206 5 21 5 50 -1 70 -9 30 -7
37 18 64 16 16 36 43 46 59 18 28 20 28 90 24 75 -5 81 -7 281 -113 50 -26
101 -51 115 -55 14 -5 50 -18 80 -30 30 -12 77 -28 104 -34 73 -18 74 -30 32
-226 -8 -36 -21 -100 -30 -143 -9 -43 -20 -87 -26 -97 -5 -10 -10 -29 -10 -42
0 -13 -6 -35 -13 -49 -8 -14 -17 -45 -21 -70 -4 -24 -16 -70 -28 -101 l-20
-57 -59 -7 c-32 -4 -65 -12 -72 -18 -24 -20 -59 -193 -55 -275 l3 -73 65 -20
c137 -42 136 -41 91 -190 -18 -58 -147 -238 -171 -238 -8 0 -97 -57 -135 -86
-27 -20 -117 -62 -183 -85 -30 -10 -73 -27 -96 -38 -127 -59 -124 -59 -181
-31 -47 23 -66 25 -83 8 -18 -18 -15 -52 8 -81 40 -51 3 -69 -100 -46 -25 5
-90 18 -145 29 -55 10 -125 26 -155 35 -30 9 -78 22 -106 30 -28 7 -60 17 -72
24 -11 6 -29 11 -39 11 -10 0 -30 7 -45 14 -16 8 -63 27 -105 41 -43 15 -106
40 -140 56 -34 16 -69 29 -77 29 -8 0 -18 4 -21 10 -3 5 -14 10 -22 10 -13 0
-12 -5 7 -22 61 -57 393 -281 515 -348 22 -12 54 -30 70 -40 17 -11 44 -26 60
-35 17 -8 44 -24 60 -34 39 -25 188 -101 197 -101 4 0 29 -13 55 -28 26 -16
68 -36 93 -46 48 -19 145 -62 170 -75 9 -5 30 -12 48 -15 17 -4 34 -12 37 -17
4 -5 13 -9 21 -9 8 0 44 -14 80 -30 l64 -31 -16 -32 c-17 -31 -46 -70 -111
-145 -18 -20 -33 -43 -33 -51 0 -17 48 -62 95 -86 19 -11 41 -33 51 -50 15
-28 15 -34 0 -69 -9 -21 -16 -48 -16 -59 0 -23 -7 -38 -121 -272 -45 -93 -98
-191 -116 -217 -18 -26 -33 -51 -33 -56 0 -11 -310 -311 -369 -358 -13 -11
-38 -31 -55 -45 -88 -72 -190 -98 -255 -64 -31 15 -34 15 -52 -1 -24 -22 -24
-60 0 -99 13 -23 33 -36 77 -50 32 -10 68 -27 79 -36 52 -43 85 -52 185 -47
72 4 103 9 125 24 104 69 373 204 418 209 200 24 237 29 237 37 0 4 7 8 15 8
16 0 38 67 38 120 0 48 -30 174 -43 178 -12 4 -14 62 -1 62 5 0 15 25 21 57 7
31 25 84 41 119 16 34 29 65 29 68 0 5 31 54 72 114 31 45 76 99 117 140 32
31 38 33 75 28 22 -4 48 -13 57 -21 28 -27 66 -18 96 21 15 20 53 69 84 108
86 111 102 141 95 181 -4 19 -13 35 -20 35 -8 0 -16 12 -19 28 -4 20 1 36 22
62 34 42 56 46 261 49 238 3 706 52 824 87 26 8 60 14 74 14 14 0 50 7 81 16
31 8 81 22 111 30 30 9 69 20 85 26 17 5 55 16 85 23 55 12 148 40 185 55 11
4 43 16 70 25 28 10 86 32 130 50 44 18 107 44 140 57 50 19 192 88 261 127
11 6 44 22 74 36 66 32 113 58 120 66 3 4 28 18 55 33 59 31 65 35 174 106
203 133 263 177 435 313 208 165 551 513 646 656 8 13 22 31 30 41 48 59 242
356 286 438 19 34 51 92 71 130 63 116 164 325 207 432 15 36 31 73 36 82 5
10 14 34 19 55 9 37 33 108 50 148 8 21 40 124 65 210 26 90 73 309 85 395 5
36 14 97 20 135 42 285 52 596 27 845 -9 85 -18 178 -20 205 -3 51 -19 144
-37 225 -6 25 -16 81 -23 125 -13 76 -30 150 -62 259 -8 26 -14 57 -14 67 0
10 -4 20 -9 23 -4 3 -11 23 -15 44 -3 22 -13 52 -21 68 -8 16 -15 38 -15 49
-1 11 -7 31 -15 45 -8 14 -14 33 -15 42 0 20 -94 263 -139 360 -17 36 -31 70
-31 74 0 9 -63 143 -88 189 -9 17 -35 65 -57 107 -36 69 -89 156 -194 318 -20
30 -61 89 -92 130 -30 41 -60 82 -65 92 -5 9 -27 36 -49 60 -23 23 -66 75 -97
113 -77 97 -268 289 -418 420 -143 125 -123 109 -220 182 -41 31 -77 59 -80
62 -12 15 -284 194 -385 253 -129 77 -246 138 -263 138 -7 0 -12 4 -12 8 0 5
-18 14 -40 21 -23 7 -40 18 -40 26 0 9 -10 15 -23 15 -13 0 -43 10 -68 21 -24
12 -84 36 -134 54 -176 63 -240 88 -250 97 -5 4 -18 8 -30 8 -11 1 -38 8 -60
16 -44 17 -126 39 -220 59 -33 7 -78 18 -100 23 -249 61 -525 92 -855 97 -118
2 -242 -1 -275 -5z m-1175 -5817 c35 -56 35 -82 0 -100 -21 -11 -27 -10 -35 3
-5 9 -18 25 -27 36 -19 22 -22 47 -12 86 10 37 41 27 74 -25z m-222 -323 c7
-12 8 -21 2 -25 -6 -3 -10 1 -10 9 0 11 -9 16 -29 16 -31 0 -47 13 -36 29 8
14 58 -6 73 -29z m2394 -230 c12 -45 18 -99 18 -175 0 -154 -21 -216 -67 -201
-24 8 -104 126 -160 236 -15 30 -35 66 -45 79 -10 13 -18 36 -18 52 0 24 6 30
38 38 20 6 42 11 48 11 7 0 25 7 40 15 18 9 49 14 78 13 l49 -3 19 -65z
m-2612 8 c0 -4 -11 -8 -25 -8 -28 0 -41 20 -31 46 6 15 10 14 31 -6 14 -13 25
-27 25 -32z m183 -65 c-7 -2 -21 -2 -30 0 -10 3 -4 5 12 5 17 0 24 -2 18 -5z
m-337 -235 c-18 -10 -39 -2 -31 12 3 4 15 6 26 3 19 -5 19 -7 5 -15z m1933
-61 c6 -8 15 -38 21 -68 14 -77 40 -181 50 -200 5 -9 12 -34 16 -55 3 -22 10
-43 14 -49 4 -5 11 -27 14 -49 4 -21 13 -52 20 -70 8 -17 22 -57 32 -90 10
-32 26 -69 36 -81 9 -12 20 -41 24 -63 6 -39 5 -42 -22 -53 -16 -7 -43 -18
-61 -25 -17 -8 -36 -14 -42 -14 -14 0 -127 -38 -168 -56 -17 -8 -36 -14 -43
-14 -7 0 -42 -20 -79 -44 -36 -24 -84 -49 -106 -55 -61 -17 -67 -5 -66 134 0
143 6 154 73 136 63 -18 166 -34 181 -28 8 3 21 40 31 84 9 43 23 105 31 138
26 115 26 121 -1 151 l-26 27 7 156 c4 86 11 166 16 179 10 25 31 29 48 9z"/>
<path d="M0 480 l0 -480 3840 0 3840 0 0 480 0 480 -3840 0 -3840 0 0 -480z"/>
</g>
</svg>
