<?xml version="1.0" encoding="UTF-8" standalone="no"?>
<svg
   xmlns:dc="http://purl.org/dc/elements/1.1/"
   xmlns:cc="http://creativecommons.org/ns#"
   xmlns:rdf="http://www.w3.org/1999/02/22-rdf-syntax-ns#"
   xmlns:svg="http://www.w3.org/2000/svg"
   xmlns="http://www.w3.org/2000/svg"
   xmlns:sodipodi="http://sodipodi.sourceforge.net/DTD/sodipodi-0.dtd"
   xmlns:inkscape="http://www.inkscape.org/namespaces/inkscape"
   version="1.0"
   width="374.000000pt"
   height="431.000000pt"
   viewBox="0 0 374.000000 431.000000"
   preserveAspectRatio="xMidYMid meet"
   id="svg3819"
   inkscape:version="0.48.3.1 r9886"
   sodipodi:docname="TG_LOGO.svg">
  <defs
     id="defs3855" />
  <sodipodi:namedview
     pagecolor="#ffffff"
     bordercolor="#666666"
     borderopacity="1"
     objecttolerance="10"
     gridtolerance="10"
     guidetolerance="10"
     inkscape:pageopacity="0"
     inkscape:pageshadow="2"
     inkscape:window-width="640"
     inkscape:window-height="480"
     id="namedview3853"
     showgrid="false"
     inkscape:zoom="0.87610209"
     inkscape:cx="371.86507"
     inkscape:cy="251.61938"
     inkscape:window-x="769"
     inkscape:window-y="312"
     inkscape:window-maximized="0"
     inkscape:current-layer="g3823" />
  <metadata
     id="metadata3821">
Created by potrace 1.10, written by Peter Selinger 2001-2011
<rdf:RDF>
  <cc:Work
     rdf:about="">
    <dc:format>image/svg+xml</dc:format>
    <dc:type
       rdf:resource="http://purl.org/dc/dcmitype/StillImage" />
  </cc:Work>
</rdf:RDF>
</metadata>
  <g
     transform="translate(0.000000,431.000000) scale(0.100000,-0.100000)"
     fill="#000000"
     stroke="none"
     id="g3823">
    <path
       d="M1715 4207 c-257 -174 -379 -272 -590 -477 l-110 -107 -110 -28 c-116 -29 -360 -112 -485 -165 -41 -17 -151 -68 -244 -113 l-169 -82 7 -135 c14 -280 46 -497 112 -764 l45 -179 -41 -161 c-69 -277 -101 -494 -116 -778 l-7 -137 114 -57 c260 -132 475 -217 734 -290 l160 -45 95 -93 c121 -119 250 -231 376 -327 108 -82 289 -206 342 -233 17 -9 32 -21 32 -26 0 -5 19 3 43 19 23 15 67 43 97 61 152 90 421 305 611 488 l118 113 143 40 c258 72 472 156 727 284 l134 67 -7 141 c-12 269 -54 546 -121 803 -34 130 -35 131 -19 190 90 339 132 613 137 875 l2 143 -110 58 c-215 113 -491 221 -720 284 -71 19 -139 38 -150 41 -10 3 -81 65 -156 138 -169 163 -353 312 -544 439 -79 53 -147 101 -150 106 -3 6 -12 10 -18 9 -7 0 -80 -46 -162 -102z m25 -381 l0 -105 -42 -5 c-84 -10 -258 -21 -257 -16 1 11 278 230 292 230 4 0 7 -47 7 -104z m346 52 c65 -49 171 -135 204 -166 13 -12 -1 -13 -100 -8 -63 4 -132 9 -152 12 l-38 6 0 104 c0 57 4 104 9 104 4 0 39 -23 77 -52z m274 -427 c244 -37 229 -31 302 -119 271 -323 482 -688 628 -1085 l32 -89 -27 -76 c-133 -371 -331 -724 -580 -1037 -114 -143 -111 -140 -211 -158 -221 -40 -347 -51 -624 -51 -278 -1 -365 5 -605 45 l-120 19 -48 53 c-81 87 -223 279 -311 419 -141 224 -242 428 -331 667 l-43 114 23 66 c86 253 237 554 398 796 105 157 272 369 305 389 28 16 233 49 437 70 22 2 175 2 340 1 240 -3 327 -8 435 -24z m-1621 -170 c-8 -11 -45 -65 -82 -120 -37 -56 -72 -101 -77 -101 -8 0 -99 50 -159 87 -24 15 -23 16 45 46 79 34 265 106 278 106 5 1 2 -8 -5 -18z m2514 -78 c48 -21 87 -40 87 -43 -1 -9 -170 -102 -179 -98 -9 3 -161 223 -161 233 0 6 141 -45 253 -92z m-2890 -327 c48 -28 86 -53 85 -57 -17 -42 -125 -258 -129 -259 -4 0 -9 17 -12 38 -49 325 -50 335 -40 331 5 -2 48 -26 96 -53z m3112 -8 c-8 -76 -45 -301 -50 -306 -4 -4 -125 246 -125 259 0 6 167 108 178 109 2 0 1 -28 -3 -62z m-10 -1346 c10 -68 15 -126 12 -129 -3 -3 -46 18 -96 47 l-91 51 56 111 c31 61 60 122 66 137 10 24 12 22 24 -34 7 -33 20 -115 29 -183z m-3082 111 c31 -65 57 -124 59 -132 3 -13 -150 -111 -174 -111 -5 0 -7 12 -4 28 2 15 7 50 11 77 13 112 38 255 45 255 4 0 32 -53 63 -117z m2867 -424 c50 -28 90 -53 90 -56 0 -6 -100 -50 -215 -93 -55 -21 -108 -42 -118 -45 -11 -5 16 43 65 118 46 69 84 126 86 126 1 1 43 -22 92 -50z m-2588 -66 c41 -60 78 -113 82 -120 7 -12 -130 34 -229 77 -27 12 -66 28 -85 36 l-35 15 85 49 c47 27 90 50 97 50 6 0 45 -48 85 -107z m966 -539 l112 -7 0 -109 c0 -85 -3 -108 -12 -102 -28 16 -206 156 -248 194 l-45 41 40 -5 c22 -3 91 -8 153 -12z m627 -31 c-94 -86 -245 -195 -251 -180 -2 7 -3 56 -2 108 l3 94 130 11 c72 6 139 11 150 12 15 1 8 -10 -30 -45z"
       id="path3825"
       style="fill:#ffffff" />
    <path
       d="M1721 3421 c-10 -7 -12 -21 -7 -54 8 -52 17 -45 -108 -72 -43 -9 -102 -25 -132 -35 l-53 -19 -17 45 c-9 24 -20 44 -24 44 -25 0 -207 -100 -264 -145 -19 -14 -18 -16 9 -54 l27 -40 -109 -109 -108 -110 -35 29 c-19 16 -37 29 -41 29 -11 0 -107 -153 -139 -223 l-30 -61 42 -17 c23 -9 44 -21 46 -28 2 -6 -8 -46 -22 -88 -14 -43 -30 -106 -37 -141 l-12 -63 -53 7 -52 6 -4 -81 c-2 -45 -2 -119 0 -165 l3 -84 53 5 53 6 13 -69 c7 -38 24 -100 37 -138 12 -38 23 -75 23 -81 0 -7 -20 -20 -45 -29 l-44 -17 17 -37 c27 -58 91 -171 122 -213 l27 -38 41 30 41 30 48 -52 c59 -64 130 -131 149 -142 20 -11 18 -25 -12 -64 -14 -18 -23 -37 -20 -42 14 -22 214 -141 262 -155 17 -5 23 0 34 34 7 23 17 43 22 46 5 3 39 -5 76 -17 37 -12 101 -30 142 -39 l75 -17 -3 -50 -4 -50 54 -6 c68 -9 158 -9 226 0 42 5 52 9 48 22 -3 9 -6 31 -8 50 l-3 34 85 18 c47 9 112 27 144 38 33 12 62 21 66 21 4 0 13 -18 20 -41 8 -22 17 -42 21 -45 11 -7 138 59 220 113 74 49 73 46 26 100 l-19 22 110 110 110 110 40 -30 40 -29 45 68 c54 82 119 210 113 221 -3 4 -23 13 -45 21 -23 7 -41 16 -41 20 0 4 11 38 24 76 13 39 29 103 37 143 l13 73 52 -5 51 -5 7 51 c8 67 8 158 -1 225 l-6 53 -50 -3 -50 -3 -18 80 c-10 44 -27 107 -38 139 -12 33 -21 63 -21 67 0 4 20 15 45 25 25 9 45 18 45 21 0 2 -19 40 -41 86 -44 87 -115 197 -127 197 -4 -1 -22 -14 -40 -29 l-34 -29 -110 110 -110 110 31 38 31 38 -42 32 c-39 28 -228 130 -243 130 -3 0 -14 -20 -25 -44 l-18 -44 -94 29 c-51 15 -118 33 -149 39 l-55 11 6 48 6 49 -35 6 c-55 9 -264 7 -280 -3z m274 -202 c240 -30 463 -137 630 -304 132 -133 229 -299 281 -481 37 -130 44 -350 16 -485 -81 -382 -354 -689 -718 -808 -245 -80 -537 -65 -768 38 -164 74 -349 228 -445 369 -298 441 -239 1017 143 1380 237 225 546 329 861 291z"
       id="path3827"
       style="fill:#ffffff" />
    <path
       d="M1412 2932 l-442 -256 2 -521 3 -520 445 -257 c245 -141 451 -255 459 -252 7 2 211 118 452 257 l439 252 0 521 0 521 -445 257 c-244 141 -450 256 -457 255 -7 0 -212 -116 -456 -257z m878 -68 l410 -237 0 -468 0 -469 -37 -23 c-21 -13 -207 -121 -415 -241 l-376 -217 -411 237 -411 237 2 476 3 475 400 232 c220 128 406 233 412 233 7 1 197 -105 423 -235z"
       id="path3829"
       style="fill:#ffffff" />
    <path
       d="M1843 3060 c-40 -9 -60 -24 -79 -61 -29 -58 -7 -135 48 -165 40 -23 103 -17 137 12 99 83 20 241 -106 214z"
       id="path3831"
       style="fill:#ffffff" />
    <path
       d="M1685 2915 c-16 -14 -122 -65 -234 -113 -170 -72 -207 -91 -223 -117 -39 -62 4 -145 75 -145 42 0 72 22 97 69 28 56 253 218 315 228 40 6 41 13 17 66 l-17 38 -30 -26z"
       id="path3833"
       style="fill:#ffffff" />
    <path
       d="M2011 2903 c-8 -21 -16 -44 -18 -50 -4 -9 5 -13 26 -13 21 0 60 -20 128 -66 136 -92 180 -130 202 -173 34 -65 103 -80 152 -32 35 35 39 86 9 123 -13 17 -86 54 -223 112 -119 51 -214 97 -227 111 -13 14 -26 25 -30 25 -3 0 -12 -17 -19 -37z"
       id="path3835"
       style="fill:#ffffff" />
    <path
       d="M1725 2761 c-133 -34 -220 -86 -312 -184 -236 -253 -212 -667 51 -890 119 -101 256 -151 411 -150 173 1 311 59 435 183 178 177 231 417 145 655 -106 292 -429 463 -730 386z m274 -76 c125 -30 261 -126 329 -233 154 -240 96 -559 -131 -727 -217 -161 -496 -147 -690 35 -118 110 -177 241 -177 392 0 155 51 279 160 388 137 136 322 189 509 145z"
       id="path3837"
       style="fill:#ffffff" />
    <path
       d="M1668 2520 c-9 -6 -28 -30 -42 -54 -25 -43 -57 -67 -64 -47 -2 6 -11 20 -21 32 -23 28 -71 20 -71 -12 0 -79 118 -104 246 -53 45 19 69 23 76 16 16 -16 0 -32 -60 -59 -31 -13 -105 -59 -165 -101 -100 -70 -107 -77 -90 -90 29 -21 193 -98 251 -117 l52 -17 -50 -54 c-70 -77 -89 -153 -44 -171 27 -10 49 11 54 52 8 58 44 80 130 80 88 0 123 -23 128 -81 5 -54 34 -70 67 -37 23 22 14 73 -20 125 -15 22 -24 42 -21 45 2 3 28 2 55 -2 l51 -7 0 -84 c0 -81 1 -84 25 -90 14 -3 32 -4 40 0 20 7 19 55 -1 77 -14 16 -14 23 2 79 9 33 32 81 52 106 19 25 30 49 26 54 -5 4 -32 12 -60 17 -45 8 -53 7 -63 -8 -18 -30 -91 -61 -146 -63 l-50 -1 -3 98 -3 97 39 0 c33 0 113 -17 208 -45 16 -5 31 2 54 22 l33 30 -33 23 c-29 20 -36 22 -64 12 -18 -7 -39 -12 -47 -12 -23 0 -132 55 -167 85 -28 23 -31 30 -18 37 10 6 36 0 75 -17 106 -44 226 -26 242 38 14 52 -60 62 -83 11 -6 -13 -14 -24 -18 -24 -12 0 -37 26 -64 68 -15 24 -33 45 -40 48 -8 3 -42 -2 -77 -11 -77 -20 -164 -20 -239 0 -64 17 -60 17 -82 5z m132 -350 l0 -81 -29 15 c-47 25 -56 83 -19 123 39 42 48 31 48 -57z"
       id="path3839"
       style="fill:#ffffff" />
    <path
       d="M1108 2469 c-30 -30 -31 -31 -24 -107 4 -42 16 -148 27 -235 15 -121 18 -166 10 -190 -6 -16 -9 -32 -7 -35 3 -2 26 -1 51 3 45 6 47 7 38 33 -10 32 -6 176 7 286 7 57 17 91 35 118 34 51 33 92 -4 129 -41 41 -91 40 -133 -2z"
       id="path3841"
       style="fill:#ffffff" />
    <path
       d="M2513 2485 c-12 -8 -27 -31 -33 -50 -9 -29 -9 -40 4 -65 9 -16 22 -42 30 -57 9 -16 20 -90 27 -176 10 -119 10 -155 0 -183 -7 -20 -11 -37 -9 -39 1 -2 25 -6 52 -10 l49 -8 -8 29 c-11 37 -9 62 15 260 28 231 27 256 -11 288 -35 30 -83 34 -116 11z"
       id="path3843"
       style="fill:#ffffff" />
    <path
       d="M1145 1880 c-40 -16 -68 -58 -73 -108 -4 -44 -1 -52 28 -85 96 -110 262 -2 199 130 -29 60 -96 88 -154 63z"
       id="path3845"
       style="fill:#ffffff" />
    <path
       d="M2489 1867 c-45 -30 -61 -63 -56 -116 9 -84 94 -132 170 -96 47 22 68 55 69 109 1 52 -21 89 -67 110 -45 22 -76 20 -116 -7z"
       id="path3847"
       style="fill:#ffffff" />
    <path
       d="M2385 1684 c-25 -38 -273 -156 -340 -161 -106 -9 -135 -28 -135 -91 0 -65 64 -113 123 -93 16 6 106 69 201 141 102 77 184 132 204 136 41 8 40 22 -2 63 l-33 32 -18 -27z"
       id="path3849"
       style="fill:#ffffff" />
    <path
       d="M1295 1668 l-27 -32 40 -17 c22 -10 119 -77 216 -149 153 -115 181 -133 215 -134 57 -1 91 33 91 91 0 63 -32 93 -100 93 -36 0 -77 11 -138 36 -122 50 -221 104 -233 125 -14 27 -34 23 -64 -13z"
       id="path3851"
       style="fill:#ffffff" />
  </g>
</svg>
