<?xml version="1.0" encoding="UTF-8" standalone="no"?>
<svg
   xmlns:dc="http://purl.org/dc/elements/1.1/"
   xmlns:cc="http://creativecommons.org/ns#"
   xmlns:rdf="http://www.w3.org/1999/02/22-rdf-syntax-ns#"
   xmlns:svg="http://www.w3.org/2000/svg"
   xmlns="http://www.w3.org/2000/svg"
   xmlns:sodipodi="http://sodipodi.sourceforge.net/DTD/sodipodi-0.dtd"
   xmlns:inkscape="http://www.inkscape.org/namespaces/inkscape"
   version="1.0"
   width="64.000000pt"
   height="64.000000pt"
   viewBox="0 0 64.000000 64.000000"
   preserveAspectRatio="xMidYMid meet"
   id="svg2"
   inkscape:version="0.48.3.1 r9886"
   sodipodi:docname="TG_LOGO_64.svg">
  <defs
     id="defs12" />
  <sodipodi:namedview
     pagecolor="#ffffff"
     bordercolor="#666666"
     borderopacity="1"
     objecttolerance="10"
     gridtolerance="10"
     guidetolerance="10"
     inkscape:pageopacity="0"
     inkscape:pageshadow="2"
     inkscape:window-width="705"
     inkscape:window-height="480"
     id="namedview10"
     showgrid="false"
     inkscape:zoom="2.95"
     inkscape:cx="40"
     inkscape:cy="40"
     inkscape:window-x="521"
     inkscape:window-y="178"
     inkscape:window-maximized="0"
     inkscape:current-layer="svg2" />
  <metadata
     id="metadata4">
Created by potrace 1.10, written by Peter Selinger 2001-2011
<rdf:RDF>
  <cc:Work
     rdf:about="">
    <dc:format>image/svg+xml</dc:format>
    <dc:type
       rdf:resource="http://purl.org/dc/dcmitype/StillImage" />
  </cc:Work>
</rdf:RDF>
</metadata>
  <g
     transform="translate(0.000000,64.000000) scale(0.100000,-0.100000)"
     id="g6"
     stroke="none"
     fill="#000000"
     style="fill:#ffffff;fill-opacity:1">
    <path
       d="M156 578 c-8 -19 -22 -41 -31 -48 -15 -12 -19 -11 -34 9 -20 26 -54 25 -59 -1 -2 -9 6 -26 17 -37 29 -29 112 -29 165 0 27 14 42 17 49 10 13 -13 -16 -48 -44 -53 -25 -4 -189 -130 -185 -143 1 -5 52 -35 113 -66 l111 -57 -25 -23 c-30 -29 -63 -90 -63 -118 0 -11 9 -25 20 -31 15 -8 21 -6 30 10 6 11 8 25 5 30 -20 33 59 77 119 66 44 -8 79 -42 71 -67 -9 -29 12 -51 36 -38 25 13 24 52 -3 100 -12 21 -19 42 -15 45 3 4 22 3 42 0 l35 -7 0 -70 c0 -74 14 -95 45 -69 19 16 19 39 1 59 -12 14 -12 24 0 70 8 29 23 66 34 81 28 39 25 47 -17 53 -31 5 -42 2 -63 -18 -30 -28 -85 -48 -112 -39 -15 4 -18 18 -18 85 l0 79 29 0 c16 0 59 -9 96 -21 l68 -21 21 22 21 21 -23 19 c-18 15 -27 16 -51 7 -23 -8 -36 -6 -73 11 -52 26 -88 57 -88 77 0 20 13 19 52 -5 66 -40 183 -18 176 33 -4 31 -47 36 -55 7 -9 -32 -35 -20 -62 29 -23 42 -25 43 -60 35 -44 -9 -172 -9 -224 1 -35 7 -38 6 -51 -27z m114 -253 c0 -64 -4 -72 -27 -57 -41 26 -26 121 20 122 4 0 7 -29 7 -65z"
       id="path8"
       style="fill:#ffffff;fill-opacity:1" />
  </g>
</svg>
